<svg width="200" height="35" viewBox="0 0 200 35" fill="none" xmlns="http://www.w3.org/2000/svg">
<path d="M22.995 5.65C22.185 5.65 21.285 5.59 20.295 5.47C19.335 5.32 18.135 5.095 16.695 4.795L14.805 13.75H21.375L20.655 17.08H14.085L10.44 34H3.96L10.44 3.94C8.37 4.03 6.87 4.825 5.94 6.325C5.04 7.825 4.59 10.135 4.59 13.255C4.59 13.825 4.62 14.32 4.68 14.74C4.77 15.16 4.905 15.565 5.085 15.955C5.145 16.075 5.175 16.165 5.175 16.225C5.205 16.255 5.22 16.285 5.22 16.315C3.54 16.315 2.31 15.97 1.53 15.28C0.78 14.56 0.405 13.45 0.405 11.95C0.405 8.38 1.74 5.545 4.41 3.445C7.11 1.315 10.89 0.249997 15.75 0.249997C16.02 0.249997 16.35 0.264998 16.74 0.294999C17.13 0.324999 17.775 0.384998 18.675 0.474997C19.875 0.594997 20.79 0.684998 21.42 0.744999C22.08 0.774999 22.68 0.789998 23.22 0.789998C24.03 0.789998 24.765 0.744998 25.425 0.654997C26.085 0.564999 26.7 0.429999 27.27 0.249997C27.24 0.309998 27.105 0.774999 26.865 1.645C26.625 2.515 26.34 3.205 26.01 3.715C25.68 4.225 25.26 4.645 24.75 4.975C24.27 5.275 23.685 5.5 22.995 5.65ZM28.1693 29.905C28.9493 29.905 29.6393 29.575 30.2393 28.915C30.8693 28.225 31.3793 27.235 31.7693 25.945L34.8293 11.5H41.3093L38.0693 26.8C38.0093 27.07 37.9643 27.325 37.9343 27.565C37.9043 27.775 37.8893 28 37.8893 28.24C37.8893 28.84 38.0243 29.275 38.2943 29.545C38.5943 29.785 39.0743 29.905 39.7343 29.905C40.5143 29.905 41.2193 29.56 41.8493 28.87C42.4793 28.18 42.9893 27.205 43.3793 25.945H45.2693C44.3093 28.705 43.0643 30.79 41.5343 32.2C40.0043 33.58 38.2343 34.27 36.2243 34.27C34.9343 34.27 33.8993 33.91 33.1193 33.19C32.3393 32.44 31.8893 31.375 31.7693 29.995C30.8993 31.435 29.9093 32.515 28.7993 33.235C27.7193 33.925 26.4893 34.27 25.1093 34.27C23.6093 34.27 22.4243 33.805 21.5543 32.875C20.7143 31.915 20.2943 30.58 20.2943 28.87C20.2943 28.48 20.3243 28.045 20.3843 27.565C20.4443 27.055 20.5343 26.515 20.6543 25.945L23.7143 11.5H30.1943L26.9543 26.8C26.8943 27.04 26.8493 27.265 26.8193 27.475C26.8193 27.655 26.8193 27.85 26.8193 28.06C26.8193 28.66 26.9243 29.125 27.1343 29.455C27.3743 29.755 27.7193 29.905 28.1693 29.905ZM54.309 29.185C54.309 28.645 54.369 27.97 54.489 27.16C54.639 26.35 54.924 25.06 55.344 23.29C55.764 21.58 56.034 20.35 56.154 19.6C56.274 18.85 56.334 18.22 56.334 17.71C56.334 16.96 56.199 16.39 55.929 16C55.659 15.61 55.254 15.415 54.714 15.415C53.994 15.415 53.319 15.79 52.689 16.54C52.089 17.26 51.594 18.265 51.204 19.555L48.144 34H41.664L46.434 11.5H52.914L52.419 13.84C53.169 13 53.979 12.37 54.849 11.95C55.719 11.53 56.664 11.32 57.684 11.32C59.274 11.32 60.504 11.755 61.374 12.625C62.244 13.495 62.679 14.755 62.679 16.405C62.679 17.095 62.589 17.92 62.409 18.88C62.259 19.81 61.944 21.25 61.464 23.2C61.074 24.73 60.819 25.81 60.699 26.44C60.579 27.07 60.519 27.595 60.519 28.015C60.519 28.645 60.669 29.125 60.969 29.455C61.269 29.755 61.719 29.905 62.319 29.905C63.069 29.905 63.714 29.65 64.254 29.14C64.794 28.63 65.409 27.565 66.099 25.945H67.989C67.029 28.735 65.859 30.82 64.479 32.2C63.129 33.58 61.509 34.27 59.619 34.27C57.939 34.27 56.634 33.82 55.704 32.92C54.774 31.99 54.309 30.745 54.309 29.185ZM82.6088 15.235C82.6088 16.255 82.3838 17.065 81.9338 17.665C81.5138 18.235 80.9438 18.52 80.2238 18.52C79.9838 18.52 79.7288 18.475 79.4588 18.385C79.1888 18.295 78.9188 18.16 78.6488 17.98C78.8288 17.5 78.9638 17.035 79.0538 16.585C79.1438 16.135 79.1888 15.715 79.1888 15.325C79.1888 14.725 79.0838 14.275 78.8738 13.975C78.6638 13.645 78.3488 13.48 77.9288 13.48C76.6088 13.48 75.3188 15.01 74.0588 18.07C72.7988 21.1 72.1688 23.98 72.1688 26.71C72.1688 28.09 72.3938 29.065 72.8438 29.635C73.3238 30.205 74.1788 30.49 75.4088 30.49C76.8188 30.49 78.1088 30.175 79.2788 29.545C80.4788 28.885 81.8438 27.685 83.3738 25.945H84.9038C83.1638 28.765 81.2738 30.865 79.2338 32.245C77.1938 33.595 74.9588 34.27 72.5288 34.27C70.2188 34.27 68.4637 33.67 67.2638 32.47C66.0938 31.27 65.5087 29.485 65.5087 27.115C65.5087 25.405 65.7637 23.59 66.2738 21.67C66.8138 19.75 67.5488 18.04 68.4788 16.54C69.5888 14.74 70.9088 13.39 72.4388 12.49C73.9988 11.56 75.7238 11.095 77.6138 11.095C79.2638 11.095 80.5088 11.455 81.3488 12.175C82.1888 12.865 82.6088 13.885 82.6088 15.235ZM94.6508 29.185C94.6508 28.645 94.7108 27.97 94.8308 27.16C94.9808 26.35 95.2658 25.06 95.6858 23.29C96.1058 21.58 96.3758 20.35 96.4958 19.6C96.6158 18.85 96.6758 18.22 96.6758 17.71C96.6758 16.96 96.5258 16.39 96.2258 16C95.9558 15.61 95.5508 15.415 95.0108 15.415C94.2908 15.415 93.5858 15.85 92.8958 16.72C92.2358 17.56 91.8008 18.445 91.5908 19.375L88.4858 34H82.0058L88.5308 3.4L95.1908 2.5L92.7608 13.84C93.5108 13 94.3208 12.37 95.1908 11.95C96.0608 11.53 97.0058 11.32 98.0258 11.32C99.6158 11.32 100.846 11.755 101.716 12.625C102.586 13.495 103.021 14.755 103.021 16.405C103.021 17.095 102.931 17.92 102.751 18.88C102.601 19.81 102.286 21.25 101.806 23.2C101.416 24.73 101.161 25.81 101.041 26.44C100.921 27.07 100.861 27.595 100.861 28.015C100.861 28.645 101.011 29.125 101.311 29.455C101.611 29.755 102.061 29.905 102.661 29.905C103.411 29.905 104.056 29.65 104.596 29.14C105.136 28.63 105.751 27.565 106.441 25.945H108.331C107.371 28.735 106.201 30.82 104.821 32.2C103.471 33.58 101.851 34.27 99.9608 34.27C98.2808 34.27 96.9758 33.82 96.0458 32.92C95.1158 31.99 94.6508 30.745 94.6508 29.185ZM122.446 3.4C123.976 2.41 125.611 1.645 127.351 1.105C129.121 0.534998 130.846 0.249997 132.526 0.249997C132.736 0.249997 132.961 0.264998 133.201 0.294999C133.471 0.294999 133.846 0.309999 134.326 0.339999L131.446 13.75H138.061L140.941 0.339999H147.421L140.266 34H133.786L137.386 17.08H130.771L127.171 34H120.691L127.216 3.4C125.176 4.24 123.616 5.515 122.536 7.225C121.456 8.905 120.916 10.915 120.916 13.255C120.916 13.825 120.946 14.32 121.006 14.74C121.096 15.16 121.231 15.565 121.411 15.955C121.471 16.075 121.501 16.165 121.501 16.225C121.531 16.255 121.546 16.285 121.546 16.315C119.866 16.315 118.636 15.97 117.856 15.28C117.106 14.56 116.731 13.45 116.731 11.95C116.731 10.45 117.226 8.95 118.216 7.45C119.236 5.95 120.646 4.6 122.446 3.4ZM160.743 13.57V13.885L161.238 11.5H167.718L164.478 26.8C164.418 27.07 164.373 27.325 164.343 27.565C164.313 27.775 164.298 28 164.298 28.24C164.298 28.9 164.448 29.395 164.748 29.725C165.048 30.025 165.513 30.175 166.143 30.175C166.923 30.175 167.628 29.815 168.258 29.095C168.888 28.345 169.398 27.295 169.788 25.945H171.678C170.718 28.705 169.473 30.79 167.943 32.2C166.413 33.58 164.643 34.27 162.633 34.27C161.343 34.27 160.308 33.91 159.528 33.19C158.778 32.47 158.343 31.45 158.223 30.13C157.293 31.51 156.258 32.545 155.118 33.235C154.008 33.925 152.808 34.27 151.518 34.27C149.658 34.27 148.188 33.64 147.108 32.38C146.058 31.12 145.533 29.335 145.533 27.025C145.533 25.345 145.788 23.59 146.298 21.76C146.808 19.93 147.513 18.265 148.413 16.765C149.523 14.995 150.813 13.645 152.283 12.715C153.753 11.755 155.358 11.275 157.098 11.275C158.268 11.275 159.168 11.485 159.798 11.905C160.428 12.295 160.743 12.85 160.743 13.57ZM160.338 15.775C160.338 15.325 160.173 14.935 159.843 14.605C159.513 14.245 159.063 14.065 158.493 14.065C156.843 14.065 155.373 15.445 154.083 18.205C152.823 20.965 152.193 23.695 152.193 26.395C152.193 27.565 152.358 28.45 152.688 29.05C153.018 29.62 153.603 29.905 154.443 29.905C155.223 29.905 155.973 29.53 156.693 28.78C157.443 28.03 157.938 27.085 158.178 25.945L160.338 15.775ZM180.92 5.515C180.92 6.505 180.56 7.345 179.84 8.035C179.15 8.725 178.31 9.07 177.32 9.07C176.33 9.07 175.49 8.725 174.8 8.035C174.11 7.345 173.765 6.505 173.765 5.515C173.765 4.525 174.11 3.685 174.8 2.995C175.49 2.275 176.33 1.915 177.32 1.915C178.31 1.915 179.15 2.275 179.84 2.995C180.56 3.685 180.92 4.525 180.92 5.515ZM169.445 28.87C169.445 28.48 169.475 28.045 169.535 27.565C169.595 27.055 169.685 26.515 169.805 25.945L172.865 11.5H179.345L176.105 26.8C176.045 27.07 176 27.325 175.97 27.565C175.94 27.775 175.925 28 175.925 28.24C175.925 28.84 176.06 29.275 176.33 29.545C176.63 29.785 177.11 29.905 177.77 29.905C178.61 29.905 179.405 29.545 180.155 28.825C180.905 28.075 181.46 27.115 181.82 25.945H183.71C182.75 28.675 181.46 30.745 179.84 32.155C178.22 33.565 176.36 34.27 174.26 34.27C172.76 34.27 171.575 33.805 170.705 32.875C169.865 31.915 169.445 30.58 169.445 28.87ZM186.572 34H180.092L184.862 11.5H191.342L190.757 14.29C192.077 13.18 193.112 12.445 193.862 12.085C194.642 11.695 195.422 11.5 196.202 11.5C197.132 11.5 197.882 11.83 198.452 12.49C199.022 13.12 199.307 13.915 199.307 14.875C199.307 15.805 199.007 16.585 198.407 17.215C197.807 17.845 197.027 18.16 196.067 18.16C195.557 18.16 195.152 18.04 194.852 17.8C194.582 17.56 194.387 17.065 194.267 16.315C194.177 15.835 194.072 15.535 193.952 15.415C193.832 15.265 193.667 15.19 193.457 15.19C192.947 15.19 192.467 15.295 192.017 15.505C191.567 15.715 190.952 16.18 190.172 16.9L186.572 34Z" fill="white"/>
</svg>
